<?xml version="1.0"?>
<svg xmlns="http://www.w3.org/2000/svg" xmlns:xlink="http://www.w3.org/1999/xlink" xmlns:svgjs="http://svgjs.com/svgjs" version="1.1" width="512" height="512" x="0" y="0" viewBox="0 0 512 512" style="enable-background:new 0 0 512 512" xml:space="preserve" class=""><g><g xmlns="http://www.w3.org/2000/svg"><g id="Finance_raise_1_"><g><path d="m0 467h151v45h-151z" fill="#fbb401" data-original="#000000" style="" class=""/><path d="m0 392h151v45h-151z" fill="#fbb401" data-original="#000000" style="" class=""/></g><g><path d="m120 139.695v-139.695c-67.315 7.573-120 64.177-120 133.484 0 74.443 60.557 135 135 135 31.813 0 60.699-11.517 83.796-29.993z" fill="#fbb401" data-original="#000000" style="" class=""/><path d="m150 0v102.264l80.332-64.266c-21.063-21.028-49.208-34.497-80.332-37.998z" fill="#fbb401" data-original="#000000" style="" class=""/><path d="m157.462 134.734 82.546 82.546c18.475-23.097 29.992-51.983 29.992-83.796 0-26.47-7.934-51.006-21.149-71.865z" fill="#fbb401" data-original="#000000" style="" class=""/></g></g><g><path d="m181 467h150v45h-150z" fill="#fbb401" data-original="#000000" style="" class=""/><path d="m181 392h150v45h-150z" fill="#fbb401" data-original="#000000" style="" class=""/><path d="m181 317h150v45h-150z" fill="#fbb401" data-original="#000000" style="" class=""/></g><g><path d="m361 467h151v45h-151z" fill="#fbb401" data-original="#000000" style="" class=""/><path d="m361 392h151v45h-151z" fill="#fbb401" data-original="#000000" style="" class=""/><path d="m361 317h151v45h-151z" fill="#fbb401" data-original="#000000" style="" class=""/></g><path d="m361 242h151v45h-151z" fill="#fbb401" data-original="#000000" style="" class=""/><path d="m361 167h151v45h-151z" fill="#fbb401" data-original="#000000" style="" class=""/></g></g></svg>
